<mxfile host="app.diagrams.net" agent="Mozilla/5.0 (Windows NT 10.0; Win64; x64) AppleWebKit/537.36 (KHTML, like Gecko) Chrome/139.0.0.0 Safari/537.36" version="28.1.1">
  <diagram name="Page-1" id="t6MLpmKA1-1n50yj4T82">
    <mxGraphModel dx="1106" dy="663" grid="1" gridSize="10" guides="1" tooltips="1" connect="1" arrows="1" fold="1" page="1" pageScale="1" pageWidth="850" pageHeight="1100" background="light-dark(#fcfcfc, #121212)" math="0" shadow="1">
      <root>
        <mxCell id="0" />
        <mxCell id="1" parent="0" />
        <mxCell id="h1Uj_N__7XMIZW6EcSjY-1" value="&lt;font style=&quot;font-size: 18px;&quot;&gt;STUDENT INFORMATION DETAILS&lt;/font&gt;" style="rounded=0;whiteSpace=wrap;html=1;fillColor=#f8cecc;strokeColor=#b85450;gradientColor=#ea6b66;" vertex="1" parent="1">
          <mxGeometry x="160" y="40" width="480" height="50" as="geometry" />
        </mxCell>
        <mxCell id="h1Uj_N__7XMIZW6EcSjY-3" style="edgeStyle=orthogonalEdgeStyle;rounded=0;orthogonalLoop=1;jettySize=auto;html=1;exitX=0.5;exitY=1;exitDx=0;exitDy=0;" edge="1" parent="1" source="h1Uj_N__7XMIZW6EcSjY-1" target="h1Uj_N__7XMIZW6EcSjY-1">
          <mxGeometry relative="1" as="geometry" />
        </mxCell>
        <mxCell id="h1Uj_N__7XMIZW6EcSjY-6" value="&lt;font style=&quot;font-size: 14px;&quot;&gt;ADMIN&lt;/font&gt;" style="rounded=0;whiteSpace=wrap;html=1;fillColor=#e1d5e7;strokeColor=#9673a6;" vertex="1" parent="1">
          <mxGeometry x="40" y="140" width="140" height="40" as="geometry" />
        </mxCell>
        <mxCell id="h1Uj_N__7XMIZW6EcSjY-7" value="Login to system" style="ellipse;whiteSpace=wrap;html=1;aspect=fixed;fillColor=#e1d5e7;strokeColor=#9673a6;rounded=0;" vertex="1" parent="1">
          <mxGeometry x="320" y="120" width="80" height="80" as="geometry" />
        </mxCell>
        <mxCell id="h1Uj_N__7XMIZW6EcSjY-8" value="check credentials" style="ellipse;whiteSpace=wrap;html=1;aspect=fixed;fillColor=#e1d5e7;strokeColor=#9673a6;rounded=0;" vertex="1" parent="1">
          <mxGeometry x="320" y="260" width="80" height="80" as="geometry" />
        </mxCell>
        <mxCell id="h1Uj_N__7XMIZW6EcSjY-9" value="Forgot Password" style="ellipse;whiteSpace=wrap;html=1;aspect=fixed;fillColor=#e1d5e7;strokeColor=#9673a6;rounded=0;" vertex="1" parent="1">
          <mxGeometry x="70" y="260" width="80" height="80" as="geometry" />
        </mxCell>
        <mxCell id="h1Uj_N__7XMIZW6EcSjY-10" value="Send Email to User" style="ellipse;whiteSpace=wrap;html=1;aspect=fixed;fillColor=#e1d5e7;strokeColor=#9673a6;rounded=0;" vertex="1" parent="1">
          <mxGeometry x="70" y="410" width="80" height="80" as="geometry" />
        </mxCell>
        <mxCell id="h1Uj_N__7XMIZW6EcSjY-11" value="Checj Roles of Access" style="ellipse;whiteSpace=wrap;html=1;aspect=fixed;fillColor=#e1d5e7;strokeColor=#9673a6;rounded=0;" vertex="1" parent="1">
          <mxGeometry x="480" y="120" width="80" height="80" as="geometry" />
        </mxCell>
        <mxCell id="h1Uj_N__7XMIZW6EcSjY-12" value="Manage Modules" style="ellipse;whiteSpace=wrap;html=1;aspect=fixed;fillColor=#e1d5e7;strokeColor=#9673a6;rounded=0;" vertex="1" parent="1">
          <mxGeometry x="480" y="260" width="80" height="80" as="geometry" />
        </mxCell>
        <mxCell id="h1Uj_N__7XMIZW6EcSjY-13" value="Manage Time Table details" style="rounded=0;whiteSpace=wrap;html=1;fillColor=#e1d5e7;strokeColor=#9673a6;" vertex="1" parent="1">
          <mxGeometry x="650" y="120" width="170" height="60" as="geometry" />
        </mxCell>
        <mxCell id="h1Uj_N__7XMIZW6EcSjY-14" value="Manage attandance details" style="rounded=0;whiteSpace=wrap;html=1;fillColor=#e1d5e7;strokeColor=#9673a6;" vertex="1" parent="1">
          <mxGeometry x="650" y="200" width="170" height="60" as="geometry" />
        </mxCell>
        <mxCell id="h1Uj_N__7XMIZW6EcSjY-15" value="Manage class details" style="rounded=0;whiteSpace=wrap;html=1;fillColor=#e1d5e7;strokeColor=#9673a6;" vertex="1" parent="1">
          <mxGeometry x="650" y="290" width="170" height="40" as="geometry" />
        </mxCell>
        <mxCell id="h1Uj_N__7XMIZW6EcSjY-16" value="Manage Student Details" style="rounded=0;whiteSpace=wrap;html=1;fillColor=#e1d5e7;strokeColor=#9673a6;" vertex="1" parent="1">
          <mxGeometry x="650" y="350" width="170" height="60" as="geometry" />
        </mxCell>
        <mxCell id="h1Uj_N__7XMIZW6EcSjY-19" value="Manage fees detsilas" style="rounded=0;whiteSpace=wrap;html=1;fillColor=#e1d5e7;strokeColor=#9673a6;" vertex="1" parent="1">
          <mxGeometry x="650" y="440" width="170" height="40" as="geometry" />
        </mxCell>
        <mxCell id="h1Uj_N__7XMIZW6EcSjY-20" value="Manage Teacher Profiles" style="rounded=0;whiteSpace=wrap;html=1;fillColor=#e1d5e7;strokeColor=#9673a6;" vertex="1" parent="1">
          <mxGeometry x="650" y="510" width="170" height="60" as="geometry" />
        </mxCell>
        <mxCell id="h1Uj_N__7XMIZW6EcSjY-21" value="Manage report" style="rounded=0;whiteSpace=wrap;html=1;fillColor=#e1d5e7;strokeColor=#9673a6;" vertex="1" parent="1">
          <mxGeometry x="650" y="580" width="170" height="40" as="geometry" />
        </mxCell>
        <mxCell id="h1Uj_N__7XMIZW6EcSjY-22" value="&lt;font style=&quot;font-size: 14px;&quot;&gt;Manage System Admins&lt;/font&gt;" style="rounded=0;whiteSpace=wrap;html=1;fillColor=#e1d5e7;strokeColor=#9673a6;" vertex="1" parent="1">
          <mxGeometry x="40" y="640" width="170" height="60" as="geometry" />
        </mxCell>
        <mxCell id="h1Uj_N__7XMIZW6EcSjY-23" value="&lt;font style=&quot;font-size: 14px;&quot;&gt;Manage roes of user&lt;/font&gt;" style="rounded=0;whiteSpace=wrap;html=1;fillColor=#e1d5e7;strokeColor=#9673a6;" vertex="1" parent="1">
          <mxGeometry x="255" y="640" width="170" height="60" as="geometry" />
        </mxCell>
        <mxCell id="h1Uj_N__7XMIZW6EcSjY-24" value="&lt;font style=&quot;font-size: 14px;&quot;&gt;Manage user permission&lt;/font&gt;" style="rounded=0;whiteSpace=wrap;html=1;fillColor=#e1d5e7;strokeColor=#9673a6;" vertex="1" parent="1">
          <mxGeometry x="460" y="640" width="170" height="60" as="geometry" />
        </mxCell>
        <mxCell id="h1Uj_N__7XMIZW6EcSjY-25" value="" style="endArrow=classic;html=1;rounded=0;exitX=1;exitY=0.5;exitDx=0;exitDy=0;entryX=0;entryY=0.5;entryDx=0;entryDy=0;" edge="1" parent="1" source="h1Uj_N__7XMIZW6EcSjY-6" target="h1Uj_N__7XMIZW6EcSjY-7">
          <mxGeometry width="50" height="50" relative="1" as="geometry">
            <mxPoint x="220" y="185" as="sourcePoint" />
            <mxPoint x="270" y="135" as="targetPoint" />
          </mxGeometry>
        </mxCell>
        <mxCell id="h1Uj_N__7XMIZW6EcSjY-27" value="" style="endArrow=classic;html=1;rounded=0;entryX=0.5;entryY=0;entryDx=0;entryDy=0;exitX=0.5;exitY=1;exitDx=0;exitDy=0;" edge="1" parent="1" source="h1Uj_N__7XMIZW6EcSjY-7" target="h1Uj_N__7XMIZW6EcSjY-8">
          <mxGeometry width="50" height="50" relative="1" as="geometry">
            <mxPoint x="320" y="240" as="sourcePoint" />
            <mxPoint x="400" y="240" as="targetPoint" />
          </mxGeometry>
        </mxCell>
        <mxCell id="h1Uj_N__7XMIZW6EcSjY-28" value="" style="endArrow=classic;html=1;rounded=0;exitX=0.5;exitY=1;exitDx=0;exitDy=0;entryX=0.5;entryY=0;entryDx=0;entryDy=0;" edge="1" parent="1" source="h1Uj_N__7XMIZW6EcSjY-6" target="h1Uj_N__7XMIZW6EcSjY-9">
          <mxGeometry width="50" height="50" relative="1" as="geometry">
            <mxPoint x="80" y="250" as="sourcePoint" />
            <mxPoint x="130" y="200" as="targetPoint" />
          </mxGeometry>
        </mxCell>
        <mxCell id="h1Uj_N__7XMIZW6EcSjY-29" value="" style="endArrow=classic;html=1;rounded=0;exitX=0.5;exitY=1;exitDx=0;exitDy=0;entryX=0.5;entryY=0;entryDx=0;entryDy=0;" edge="1" parent="1" source="h1Uj_N__7XMIZW6EcSjY-9" target="h1Uj_N__7XMIZW6EcSjY-10">
          <mxGeometry width="50" height="50" relative="1" as="geometry">
            <mxPoint x="85" y="400" as="sourcePoint" />
            <mxPoint x="135" y="350" as="targetPoint" />
          </mxGeometry>
        </mxCell>
        <mxCell id="h1Uj_N__7XMIZW6EcSjY-30" value="" style="endArrow=classic;html=1;rounded=0;entryX=0;entryY=0.6;entryDx=0;entryDy=0;entryPerimeter=0;" edge="1" parent="1" source="h1Uj_N__7XMIZW6EcSjY-8" target="h1Uj_N__7XMIZW6EcSjY-11">
          <mxGeometry width="50" height="50" relative="1" as="geometry">
            <mxPoint x="420" y="250" as="sourcePoint" />
            <mxPoint x="470" y="200" as="targetPoint" />
          </mxGeometry>
        </mxCell>
        <mxCell id="h1Uj_N__7XMIZW6EcSjY-31" value="" style="endArrow=classic;html=1;rounded=0;exitX=0.5;exitY=1;exitDx=0;exitDy=0;entryX=0.5;entryY=0;entryDx=0;entryDy=0;" edge="1" parent="1" source="h1Uj_N__7XMIZW6EcSjY-11" target="h1Uj_N__7XMIZW6EcSjY-12">
          <mxGeometry width="50" height="50" relative="1" as="geometry">
            <mxPoint x="500" y="250" as="sourcePoint" />
            <mxPoint x="550" y="200" as="targetPoint" />
          </mxGeometry>
        </mxCell>
        <mxCell id="h1Uj_N__7XMIZW6EcSjY-32" value="" style="endArrow=classic;html=1;rounded=0;entryX=0;entryY=0.5;entryDx=0;entryDy=0;" edge="1" parent="1" source="h1Uj_N__7XMIZW6EcSjY-12" target="h1Uj_N__7XMIZW6EcSjY-13">
          <mxGeometry width="50" height="50" relative="1" as="geometry">
            <mxPoint x="570" y="240" as="sourcePoint" />
            <mxPoint x="620" y="190" as="targetPoint" />
          </mxGeometry>
        </mxCell>
        <mxCell id="h1Uj_N__7XMIZW6EcSjY-33" value="" style="endArrow=classic;html=1;rounded=0;exitX=1;exitY=0.5;exitDx=0;exitDy=0;entryX=0;entryY=0.5;entryDx=0;entryDy=0;" edge="1" parent="1" source="h1Uj_N__7XMIZW6EcSjY-12" target="h1Uj_N__7XMIZW6EcSjY-14">
          <mxGeometry width="50" height="50" relative="1" as="geometry">
            <mxPoint x="580" y="290" as="sourcePoint" />
            <mxPoint x="630" y="240" as="targetPoint" />
          </mxGeometry>
        </mxCell>
        <mxCell id="h1Uj_N__7XMIZW6EcSjY-34" value="" style="endArrow=classic;html=1;rounded=0;exitX=1.006;exitY=0.6;exitDx=0;exitDy=0;exitPerimeter=0;entryX=0;entryY=0.5;entryDx=0;entryDy=0;" edge="1" parent="1" source="h1Uj_N__7XMIZW6EcSjY-12" target="h1Uj_N__7XMIZW6EcSjY-15">
          <mxGeometry width="50" height="50" relative="1" as="geometry">
            <mxPoint x="590" y="340" as="sourcePoint" />
            <mxPoint x="640" y="290" as="targetPoint" />
          </mxGeometry>
        </mxCell>
        <mxCell id="h1Uj_N__7XMIZW6EcSjY-35" value="" style="endArrow=classic;html=1;rounded=0;exitX=0.938;exitY=0.763;exitDx=0;exitDy=0;exitPerimeter=0;entryX=0;entryY=0.5;entryDx=0;entryDy=0;" edge="1" parent="1" source="h1Uj_N__7XMIZW6EcSjY-12" target="h1Uj_N__7XMIZW6EcSjY-16">
          <mxGeometry width="50" height="50" relative="1" as="geometry">
            <mxPoint x="440" y="450" as="sourcePoint" />
            <mxPoint x="490" y="400" as="targetPoint" />
          </mxGeometry>
        </mxCell>
        <mxCell id="h1Uj_N__7XMIZW6EcSjY-36" value="" style="endArrow=classic;html=1;rounded=0;exitX=1;exitY=1;exitDx=0;exitDy=0;entryX=0;entryY=0.5;entryDx=0;entryDy=0;" edge="1" parent="1" source="h1Uj_N__7XMIZW6EcSjY-12" target="h1Uj_N__7XMIZW6EcSjY-19">
          <mxGeometry width="50" height="50" relative="1" as="geometry">
            <mxPoint x="580" y="490" as="sourcePoint" />
            <mxPoint x="630" y="440" as="targetPoint" />
          </mxGeometry>
        </mxCell>
        <mxCell id="h1Uj_N__7XMIZW6EcSjY-37" value="" style="endArrow=classic;html=1;rounded=0;exitX=0.769;exitY=0.925;exitDx=0;exitDy=0;exitPerimeter=0;entryX=0;entryY=0.5;entryDx=0;entryDy=0;" edge="1" parent="1" source="h1Uj_N__7XMIZW6EcSjY-12" target="h1Uj_N__7XMIZW6EcSjY-20">
          <mxGeometry width="50" height="50" relative="1" as="geometry">
            <mxPoint x="540" y="350" as="sourcePoint" />
            <mxPoint x="590" y="390" as="targetPoint" />
          </mxGeometry>
        </mxCell>
        <mxCell id="h1Uj_N__7XMIZW6EcSjY-38" value="" style="endArrow=classic;html=1;rounded=0;exitX=0.663;exitY=0.975;exitDx=0;exitDy=0;exitPerimeter=0;entryX=0;entryY=0.5;entryDx=0;entryDy=0;" edge="1" parent="1" source="h1Uj_N__7XMIZW6EcSjY-12" target="h1Uj_N__7XMIZW6EcSjY-21">
          <mxGeometry width="50" height="50" relative="1" as="geometry">
            <mxPoint x="540" y="480" as="sourcePoint" />
            <mxPoint x="590" y="430" as="targetPoint" />
          </mxGeometry>
        </mxCell>
        <mxCell id="h1Uj_N__7XMIZW6EcSjY-39" value="" style="endArrow=classic;html=1;rounded=0;exitX=0.5;exitY=1;exitDx=0;exitDy=0;entryX=0.356;entryY=-0.017;entryDx=0;entryDy=0;entryPerimeter=0;" edge="1" parent="1" source="h1Uj_N__7XMIZW6EcSjY-12" target="h1Uj_N__7XMIZW6EcSjY-24">
          <mxGeometry width="50" height="50" relative="1" as="geometry">
            <mxPoint x="440" y="450" as="sourcePoint" />
            <mxPoint x="490" y="400" as="targetPoint" />
          </mxGeometry>
        </mxCell>
        <mxCell id="h1Uj_N__7XMIZW6EcSjY-40" value="" style="endArrow=classic;html=1;rounded=0;" edge="1" parent="1" source="h1Uj_N__7XMIZW6EcSjY-12" target="h1Uj_N__7XMIZW6EcSjY-23">
          <mxGeometry width="50" height="50" relative="1" as="geometry">
            <mxPoint x="520" y="340" as="sourcePoint" />
            <mxPoint x="490" y="400" as="targetPoint" />
          </mxGeometry>
        </mxCell>
        <mxCell id="h1Uj_N__7XMIZW6EcSjY-41" value="" style="endArrow=classic;html=1;rounded=0;exitX=0;exitY=1;exitDx=0;exitDy=0;" edge="1" parent="1" source="h1Uj_N__7XMIZW6EcSjY-12" target="h1Uj_N__7XMIZW6EcSjY-22">
          <mxGeometry width="50" height="50" relative="1" as="geometry">
            <mxPoint x="440" y="450" as="sourcePoint" />
            <mxPoint x="490" y="400" as="targetPoint" />
          </mxGeometry>
        </mxCell>
      </root>
    </mxGraphModel>
  </diagram>
</mxfile>
